<svg width="20" height="20" viewBox="0 0 20 20" fill="none" xmlns="http://www.w3.org/2000/svg">
<path d="M10.3671 7.96915C9.00644 7.96915 7.89601 9.07958 7.89601 10.4403C7.89601 11.801 9.00644 12.9114 10.3671 12.9114C11.7278 12.9114 12.8383 11.801 12.8383 10.4403C12.8383 9.07958 11.7278 7.96915 10.3671 7.96915ZM17.7787 10.4403C17.7787 9.41698 17.788 8.40294 17.7305 7.38149C17.673 6.19505 17.4024 5.14208 16.5348 4.27449C15.6654 3.40505 14.6142 3.13625 13.4278 3.07878C12.4045 3.02131 11.3904 3.03058 10.369 3.03058C9.34569 3.03058 8.33165 3.02131 7.3102 3.07878C6.12376 3.13625 5.07079 3.40691 4.2032 4.27449C3.33376 5.14393 3.06496 6.19505 3.00749 7.38149C2.95002 8.40479 2.95929 9.41883 2.95929 10.4403C2.95929 11.4617 2.95002 12.4776 3.00749 13.4991C3.06496 14.6855 3.33562 15.7385 4.2032 16.6061C5.07264 17.4755 6.12376 17.7443 7.3102 17.8018C8.33351 17.8593 9.34754 17.85 10.369 17.85C11.3923 17.85 12.4063 17.8593 13.4278 17.8018C14.6142 17.7443 15.6672 17.4737 16.5348 16.6061C17.4042 15.7366 17.673 14.6855 17.7305 13.4991C17.7898 12.4776 17.7787 11.4636 17.7787 10.4403ZM10.3671 14.2425C8.26306 14.2425 6.56496 12.5444 6.56496 10.4403C6.56496 8.3362 8.26306 6.63811 10.3671 6.63811C12.4712 6.63811 14.1693 8.3362 14.1693 10.4403C14.1693 12.5444 12.4712 14.2425 10.3671 14.2425ZM14.325 7.37036C13.8338 7.37036 13.4371 6.97365 13.4371 6.48239C13.4371 5.99113 13.8338 5.59441 14.325 5.59441C14.8163 5.59441 15.213 5.99113 15.213 6.48239C15.2132 6.59904 15.1903 6.71457 15.1457 6.82237C15.1012 6.93017 15.0357 7.02812 14.9533 7.11061C14.8708 7.19309 14.7728 7.2585 14.665 7.30307C14.5572 7.34764 14.4417 7.37051 14.325 7.37036Z" fill="url(#paint0_linear_2_1994)"/>
<defs>
<linearGradient id="paint0_linear_2_1994" x1="2.95874" y1="3.46593" x2="9.88479" y2="13.9024" gradientUnits="userSpaceOnUse">
<stop stop-color="#FF2801"/>
<stop offset="1" stop-color="#FF6B0A"/>
</linearGradient>
</defs>
</svg>
