<svg width="19" height="16" viewBox="0 0 19 16" fill="none" xmlns="http://www.w3.org/2000/svg">
<path d="M18.5829 2.60597C17.9224 2.89863 17.2129 3.09637 16.467 3.18575C17.2367 2.72524 17.8124 2.00046 18.0869 1.14665C17.3639 1.57613 16.5725 1.87844 15.7473 2.04043C15.1923 1.4479 14.4573 1.05515 13.6562 0.923179C12.8552 0.791205 12.033 0.927385 11.3173 1.31058C10.6016 1.69377 10.0324 2.30253 9.69812 3.04235C9.36384 3.78217 9.28316 4.61165 9.46861 5.40202C8.00351 5.32846 6.57024 4.94765 5.26183 4.28432C3.95341 3.62098 2.7991 2.68994 1.8738 1.55162C1.55742 2.09738 1.3755 2.73015 1.3755 3.40405C1.37514 4.01072 1.52454 4.60809 1.81043 5.14316C2.09632 5.67824 2.50986 6.13448 3.01437 6.4714C2.42927 6.45278 1.85709 6.29469 1.34544 6.01027V6.05773C1.34538 6.9086 1.6397 7.73328 2.17847 8.39185C2.71723 9.05042 3.46725 9.50231 4.30126 9.67084C3.75849 9.81773 3.18944 9.83937 2.63708 9.73412C2.87239 10.4662 3.33075 11.1065 3.94799 11.5651C4.56524 12.0238 5.31046 12.278 6.07934 12.2921C4.77413 13.3167 3.16219 13.8725 1.50284 13.8701C1.2089 13.8701 0.915216 13.853 0.623291 13.8186C2.30762 14.9016 4.26831 15.4764 6.27076 15.4741C13.0493 15.4741 16.755 9.85988 16.755 4.99072C16.755 4.83253 16.751 4.67275 16.7439 4.51456C17.4647 3.9933 18.0869 3.34781 18.5813 2.60834L18.5829 2.60597Z" fill="url(#paint0_linear_2_1989)"/>
<defs>
<linearGradient id="paint0_linear_2_1989" x1="0.623291" y1="1.30356" x2="6.81169" y2="12.7741" gradientUnits="userSpaceOnUse">
<stop stop-color="#FF2801"/>
<stop offset="1" stop-color="#FF6B0A"/>
</linearGradient>
</defs>
</svg>
